<svg class="svg-icon" style="width: 1em;height: 1em;vertical-align: middle;fill: currentColor;overflow: hidden;" viewBox="0 0 1024 1024" version="1.1" xmlns="http://www.w3.org/2000/svg"><path d="M140.709647 522.059294c11.986824 0 24.335059 2.710588 35.900235 8.493177l365.628236 182.753882 365.568-182.753882a80.233412 80.233412 0 1 1 71.80047 143.661176l-401.52847 200.764235a80.233412 80.233412 0 0 1-71.860706 0l-401.528471-200.764235a80.233412 80.233412 0 0 1 36.020706-152.154353z" fill="#434343" /><path d="M140.709647 261.059765c6.023529 0 12.107294 1.325176 17.889882 4.21647l383.638589 191.789177 383.518117-191.789177a40.297412 40.297412 0 0 1 53.910589 17.950118 40.237176 40.237176 0 0 1-18.010353 53.910588L560.128 537.901176a40.056471 40.056471 0 0 1-35.900235 0L122.699294 337.136941a40.237176 40.237176 0 0 1 18.010353-76.077176z" fill="#434343" /></svg>